<svg width="20" height="20" viewBox="0 0 20 20" fill="none" xmlns="http://www.w3.org/2000/svg">
<path d="M1.55447 15.4336C1.71858 15.4357 1.87912 15.3855 2.01278 15.2902C2.14451 15.1963 2.24336 15.0634 2.29547 14.9104L3.40834 12.4224H9.32552L10.4385 14.8785C10.4945 15.0345 10.5954 15.1705 10.7287 15.2692C10.8638 15.3694 11.0259 15.4266 11.1939 15.4334L11.1939 15.4336H11.2C11.3989 15.4336 11.5897 15.3545 11.7303 15.2139C11.871 15.0732 11.95 14.8825 11.95 14.6836H11.9503L11.9497 14.6744C11.942 14.547 11.9113 14.4221 11.8592 14.3056L11.8585 14.3043L7.35644 4.5007C7.29233 4.31035 7.16984 4.14496 7.00627 4.02812C6.84057 3.90977 6.64141 3.84745 6.43783 3.85022H6.37391C6.16879 3.8458 5.96761 3.90715 5.79983 4.0253C5.63387 4.14217 5.50924 4.30853 5.44369 4.50048L0.94261 14.3351C0.881162 14.4572 0.849424 14.592 0.850008 14.7286L1.00001 14.728M1.55447 15.4336C1.36774 15.4333 1.18872 15.359 1.05666 15.2269C0.924342 15.0946 0.850007 14.9151 0.850007 14.728H1.00001M1.55447 15.4336C1.55412 15.4336 1.55376 15.4335 1.55341 15.4335L1.55556 15.2836C1.40822 15.2836 1.26691 15.225 1.16272 15.1208C1.05854 15.0167 1.00001 14.8753 1.00001 14.728M1.55447 15.4336L1.07778 14.4002C1.02618 14.5018 0.99952 14.6141 1.00001 14.728M8.69578 11.0002H4.05403L6.37238 5.83824L8.69578 11.0002Z" fill="#98BF38" stroke="#98BF38" stroke-width="0.3"/>
<path d="M18.4629 7.74949L18.4691 7.75646C18.7632 8.08999 18.9873 8.47916 19.1282 8.90092C19.2685 9.32081 19.3235 9.76449 19.2899 10.2059V14.5514C19.2949 14.646 19.2809 14.7406 19.2486 14.8297C19.2157 14.9202 19.1647 15.0031 19.0985 15.0732C19.0324 15.1432 18.9527 15.199 18.8642 15.2371C18.7757 15.2752 18.6804 15.2947 18.5841 15.2946M18.4629 7.74949L19.1399 14.5557C19.1444 14.6314 19.1334 14.7072 19.1076 14.7785C19.0817 14.8498 19.0415 14.9151 18.9894 14.9702C18.9374 15.0254 18.8746 15.0693 18.8049 15.0993C18.7353 15.1293 18.6602 15.1447 18.5843 15.1446C18.437 15.1446 18.2957 15.086 18.1915 14.9818C18.0873 14.8777 18.0288 14.7363 18.0288 14.589V14.1175C17.9804 14.1746 17.9304 14.2301 17.8788 14.284M18.4629 7.74949L18.456 7.74334C18.091 7.42035 17.6655 7.17313 17.2041 7.01603C16.7445 6.85952 16.2584 6.79557 15.774 6.82787C14.8544 6.82545 13.9448 7.01935 13.1061 7.39665L13.1061 7.39664L13.1047 7.39731C12.9844 7.45296 12.8822 7.54139 12.8098 7.65245C12.7374 7.76351 12.6978 7.89271 12.6955 8.02525L12.6953 8.03246L12.6959 8.03965C12.7093 8.20975 12.7838 8.36924 12.9058 8.48859C13.0277 8.60793 13.1888 8.67905 13.3591 8.68876L13.3664 8.68917L13.3736 8.68888C13.4641 8.68528 13.5533 8.66698 13.6379 8.63468L13.638 8.63499L13.647 8.63086C14.2754 8.34211 14.9591 8.19324 15.6507 8.19456H15.651C16.3784 8.19456 16.9319 8.37379 17.3023 8.70558C17.6699 9.03496 17.8788 9.53424 17.8788 10.2223V10.3026M18.4629 7.74949L17.8788 10.3026M18.5841 15.2946L18.5843 15.1447V15.2946C18.5842 15.2946 18.5842 15.2946 18.5841 15.2946ZM18.5841 15.2946C18.397 15.2945 18.2177 15.2202 18.0854 15.0879C17.9531 14.9556 17.8788 14.7761 17.8788 14.589V14.284M17.8788 14.284C17.5753 14.6007 17.2163 14.8609 16.8185 15.051C16.2962 15.3006 15.7219 15.4222 15.1433 15.4057M17.8788 14.284V14.0618C17.5664 14.4194 17.1838 14.7102 16.7538 14.9157C16.2524 15.1553 15.701 15.2719 15.1454 15.2557C13.6621 15.2557 12.1621 14.4057 12.1621 12.7668V12.739C12.1621 11.0557 13.551 10.1612 15.5732 10.1612C16.3519 10.154 17.1277 10.2539 17.8788 10.4579V10.3026M15.1433 15.4057L13.1677 7.53345C13.0729 7.57727 12.9925 7.64689 12.9355 7.73434C12.8785 7.82179 12.8473 7.92353 12.8454 8.02789C12.856 8.16183 12.9147 8.28741 13.0107 8.38138C13.1067 8.47536 13.2335 8.53135 13.3677 8.539C13.4418 8.53605 13.515 8.52104 13.5843 8.49456C14.2325 8.19674 14.9377 8.0432 15.651 8.04456C17.151 8.04456 18.0288 8.78345 18.0288 10.2223V10.344C17.9789 10.3297 17.9289 10.3159 17.8788 10.3026M15.1433 15.4057C14.376 15.4053 13.5981 15.1856 13.0079 14.7461C12.4133 14.3032 12.0121 13.6381 12.0121 12.7668V12.739C12.0121 11.8503 12.3815 11.1602 13.0214 10.6973C13.6552 10.2389 14.5423 10.0113 15.5725 10.0112C16.3512 10.0041 17.1269 10.1021 17.8788 10.3026M15.1433 15.4057L17.8788 10.3026M17.8954 12.1334C17.8954 13.2859 16.7923 14.1446 15.3732 14.1446C14.8598 14.1446 14.3916 14.004 14.0557 13.7547C13.7232 13.5078 13.5177 13.1535 13.5177 12.7057V12.6723C13.5177 12.219 13.7041 11.8476 14.0608 11.5848C14.4225 11.3183 14.9707 11.1557 15.7007 11.1557C16.4427 11.1578 17.1808 11.2594 17.8954 11.4578V12.1334Z" fill="#98BF38" stroke="#98BF38" stroke-width="0.3"/>
</svg>
