<svg width="145" height="30" viewBox="0 0 145 30" fill="none" xmlns="http://www.w3.org/2000/svg">
<g clip-path="url(#clip0_4784_235)">
<path d="M23.6609 23.3921C24.1452 21.5154 24.3667 19.581 24.3191 17.6439V3.02584C24.3191 1.96014 24.0918 1.17736 23.6467 0.701098C23.4247 0.466956 23.1544 0.283371 22.8545 0.162916C22.5546 0.042461 22.2321 -0.0120199 21.9091 0.00320422C21.5923 -0.0140759 21.2756 0.038693 20.9817 0.157724C20.6878 0.276756 20.424 0.459098 20.2093 0.691667C19.7784 1.16322 19.5606 1.95542 19.5606 3.04942V18.1154C19.5606 20.8599 19.0067 22.963 17.9129 24.3635C16.8192 25.764 14.8685 26.5515 12.2312 26.5515C10.3373 26.5515 8.85058 26.1978 7.76632 25.4952C6.66574 24.7858 5.8472 23.7172 5.45102 22.4726C5.0115 21.0207 4.80536 19.5088 4.84023 17.9928V3.03527C4.84023 1.979 4.6177 1.19623 4.1821 0.710529C3.95966 0.472966 3.68731 0.287238 3.38448 0.1666C3.08165 0.0459616 2.75582 -0.00661075 2.43024 0.0126352C2.11421 -0.00271382 1.7987 0.051917 1.50641 0.172594C1.21413 0.293271 0.952353 0.476992 0.739926 0.710529C0.299593 1.18208 0.0817939 1.979 0.0817939 3.03527V17.6533C0.0448385 19.5814 0.287227 21.5046 0.801478 23.3638C1.19697 24.7828 1.94429 26.08 2.97474 27.1362C4.05675 28.1633 5.37776 28.907 6.81937 29.3006C8.72523 29.8199 10.696 30.0644 12.6715 30.0268C14.344 30.0572 16.0111 29.8313 17.6146 29.3572C18.9548 28.9345 20.185 28.2228 21.2178 27.2729C22.3724 26.2255 23.2173 24.8834 23.6609 23.3921ZM57.685 2.82779C57.7495 2.05433 57.5382 1.28298 57.0884 0.649227C56.8919 0.432706 56.649 0.263041 56.3777 0.152834C56.1064 0.042626 55.8136 -0.00529303 55.5212 0.0126352C55.238 -0.00136112 54.9552 0.0481493 54.6938 0.157513C54.4324 0.266877 54.199 0.433303 54.0108 0.644512C53.5658 1.28198 53.3581 2.05414 53.4237 2.82779V23.2506L40.2326 3.37007L39.2857 1.86111C39.0471 1.47814 38.7712 1.11959 38.4618 0.790692C38.2114 0.52807 37.9071 0.322226 37.5697 0.187156C37.2323 0.0520851 36.8696 -0.00904545 36.5064 0.00791971C35.9408 0.00386933 35.3868 0.168062 34.9155 0.479469C34.452 0.763636 34.0881 1.18366 33.8738 1.68192C33.6627 2.34931 33.5697 3.04819 33.5992 3.74731V27.2163C33.5392 27.9848 33.7576 28.7493 34.2147 29.3713C34.4091 29.5918 34.6511 29.7658 34.9224 29.8801C35.1938 29.9944 35.4876 30.0462 35.7819 30.0315C36.0736 30.042 36.364 29.9883 36.6325 29.8742C36.9009 29.7601 37.1408 29.5884 37.3349 29.3713C37.8013 28.7535 38.0237 27.9867 37.9599 27.2163V7.01986L50.8338 26.7071C51.1557 27.1786 51.4872 27.6502 51.8139 28.1217C52.0976 28.5224 52.4247 28.8909 52.7892 29.2204C53.0855 29.4897 53.4311 29.6994 53.8072 29.8382C54.2125 29.9757 54.6385 30.0427 55.0666 30.0362C56.2882 30.0362 57.685 29.6637 57.685 26.7354V2.82779Z" fill="#98BF38"/>
<path d="M87.212 12.1088C86.2398 11.6153 85.1589 11.3721 84.0681 11.4015C83.0825 11.3887 82.1082 11.6119 81.2272 12.0522C80.279 12.5641 79.446 13.2638 78.7794 14.1082L78.1449 14.9381L77.6336 14.0563C77.1827 13.2369 76.5145 12.5567 75.7018 12.09C74.825 11.6385 73.8475 11.4162 72.8609 11.4439C71.8454 11.4303 70.8405 11.6514 69.9254 12.09C68.9525 12.5972 68.0962 13.3006 67.4112 14.1553L66.1565 15.6502V13.2311C66.174 12.9846 66.1411 12.7371 66.0597 12.5037C65.9783 12.2702 65.8501 12.0557 65.683 11.873C65.5297 11.7165 65.3452 11.5936 65.1413 11.5124C64.9374 11.4312 64.7187 11.3934 64.4993 11.4015C64.2834 11.3873 64.0671 11.4223 63.8669 11.5041C63.6666 11.5858 63.4878 11.712 63.344 11.873C62.9942 12.3424 62.8261 12.9217 62.8706 13.5046V27.5426C62.816 28.1981 63.0047 28.8507 63.4008 29.377C63.5636 29.5601 63.7654 29.7047 63.9915 29.8001C64.2176 29.8956 64.4623 29.9395 64.7076 29.9287C64.9517 29.9424 65.1958 29.9007 65.4213 29.8067C65.6469 29.7128 65.8481 29.5691 66.0097 29.3864C66.3968 28.8545 66.5799 28.2021 66.5258 27.5474V20.9079C66.5258 18.7247 66.8004 17.0742 67.3591 15.8671C67.7947 14.924 68.8174 13.8017 71.1895 13.8017C71.6181 13.771 72.0482 13.8364 72.4481 13.993C72.8479 14.1497 73.2074 14.3937 73.5001 14.7071C73.9796 15.2925 74.2745 16.0062 74.3476 16.7583C74.4492 17.742 74.4935 18.7308 74.4802 19.7196V27.5379C74.422 28.1953 74.6035 28.8515 74.9916 29.3864C75.1514 29.5659 75.3497 29.7074 75.5718 29.8004C75.7938 29.8935 76.034 29.9357 76.2747 29.924C76.5237 29.9382 76.7728 29.897 77.0038 29.8031C77.2348 29.7093 77.4419 29.5653 77.6099 29.3817C78.0025 28.8505 78.1877 28.1951 78.1307 27.5379V21.0164C78.1307 18.8001 78.3296 17.277 78.732 16.348C79.0967 15.5964 79.6576 14.9564 80.356 14.4949C81.0168 14.0472 81.7965 13.8059 82.5956 13.8017C83.0242 13.7739 83.4539 13.8379 83.8556 13.9891C84.2574 14.1404 84.6221 14.3756 84.9251 14.6788C85.4255 15.2301 85.7429 15.9217 85.8342 16.6593C85.9404 17.5322 85.9878 18.4113 85.9762 19.2905V27.5426C85.9217 28.1981 86.1103 28.8507 86.5065 29.377C86.6693 29.5601 86.8711 29.7047 87.0972 29.8001C87.3233 29.8956 87.568 29.9395 87.8133 29.9287C88.0623 29.9429 88.3115 29.9017 88.5425 29.8078C88.7734 29.714 88.9805 29.5701 89.1485 29.3864C89.5412 28.8552 89.7263 28.1998 89.6693 27.5426V17.9607C89.6693 16.1689 89.4799 14.8627 89.1059 14.0752C88.7056 13.2324 88.0408 12.5422 87.212 12.1088ZM98.5044 11.3921C98.2734 11.3806 98.0427 11.4203 97.829 11.5084C97.6153 11.5964 97.4239 11.7306 97.2686 11.9013C96.9054 12.3966 96.737 13.0072 96.7952 13.6178V27.67C96.7477 28.2926 96.9258 28.9115 97.297 29.4147C97.4468 29.5911 97.6353 29.7308 97.8479 29.8232C98.0605 29.9156 98.2916 29.9581 98.5233 29.9475C98.7601 29.9573 98.996 29.915 99.2145 29.8237C99.433 29.7325 99.6286 29.5944 99.7875 29.4194C100.173 28.9207 100.357 28.2968 100.304 27.67V13.4669C100.347 12.9006 100.165 12.34 99.797 11.906C99.6324 11.7314 99.4314 11.5948 99.2081 11.506C98.9847 11.4172 98.7445 11.3783 98.5044 11.3921ZM97.2686 7.2377C97.6261 7.55191 98.0893 7.7203 98.566 7.70926C99.0264 7.71703 99.4722 7.5482 99.8112 7.2377C99.9767 7.07832 100.105 6.88456 100.187 6.67022C100.269 6.45587 100.302 6.22619 100.285 5.99753C100.306 5.76925 100.274 5.53919 100.192 5.32501C100.11 5.11084 99.9797 4.91825 99.8112 4.76207C99.4684 4.46094 99.0278 4.29346 98.5707 4.29052C98.1041 4.27981 97.6513 4.44871 97.3065 4.76207C97.1362 4.90966 97.0014 5.09352 96.912 5.30003C96.8227 5.50654 96.7811 5.73042 96.7904 5.95509C96.7657 6.19111 96.7959 6.42965 96.8789 6.65211C96.9618 6.87458 97.0952 7.07498 97.2686 7.2377ZM121.298 27.2974C121.895 26.383 122.197 25.3086 122.164 24.2182C122.178 23.5056 121.961 22.8075 121.544 22.2283C121.025 21.5494 120.356 20.9991 119.588 20.6203C118.452 20.0536 117.25 19.6276 116.009 19.3518C114.716 19.0406 113.684 18.7718 112.945 18.5502C112.234 18.3571 111.564 18.0376 110.966 17.6071C110.673 17.4 110.434 17.1257 110.269 16.8073C110.104 16.4889 110.018 16.1357 110.019 15.7775C110.026 15.3666 110.142 14.9649 110.354 14.6129C110.567 14.2609 110.87 13.9713 111.231 13.7734C112.015 13.3009 112.92 13.065 113.836 13.0944C114.671 13.0562 115.502 13.2366 116.246 13.6178C116.836 13.9573 117.354 14.4091 117.77 14.9475C118.096 15.3773 118.466 15.7723 118.873 16.1264C119.113 16.3148 119.411 16.4118 119.716 16.3999C120.122 16.4331 120.526 16.3099 120.843 16.0557C120.96 15.9435 121.052 15.8075 121.111 15.657C121.171 15.5065 121.197 15.3449 121.189 15.1833C121.169 14.7538 121.024 14.3392 120.772 13.9903C120.414 13.4804 119.954 13.0487 119.423 12.7218C118.702 12.2771 117.913 11.9507 117.088 11.7552C116.023 11.4949 114.928 11.3697 113.831 11.3826C112.507 11.3457 111.189 11.59 109.967 12.0994C109.039 12.487 108.239 13.1257 107.657 13.9431C107.163 14.6435 106.897 15.478 106.894 16.3339C106.863 17.1805 107.145 18.0092 107.685 18.6634C108.312 19.3763 109.096 19.9348 109.977 20.2949C111.283 20.8297 112.63 21.2586 114.006 21.5775C115.205 21.8143 116.362 22.2224 117.443 22.7894C117.87 23.047 118.219 23.415 118.452 23.8543C118.686 24.2935 118.795 24.7876 118.769 25.2839C118.754 25.7074 118.631 26.1201 118.413 26.4837C118.194 26.8472 117.887 27.1499 117.519 27.3635C116.676 27.9105 115.684 28.184 114.678 28.1462C113.603 28.2337 112.526 28.0001 111.585 27.4751C110.644 26.9502 109.881 26.1577 109.394 25.199C109.224 24.8691 109.002 24.5682 108.736 24.3078C108.531 24.1602 108.278 24.0915 108.026 24.1145C107.851 24.1075 107.677 24.1365 107.514 24.1998C107.351 24.2631 107.203 24.3593 107.079 24.4823C106.959 24.5955 106.864 24.7324 106.801 24.8842C106.737 25.0361 106.706 25.1996 106.71 25.3641C106.736 26.1003 107.003 26.8077 107.472 27.3776C108.135 28.1829 108.999 28.8008 109.977 29.1695C111.332 29.7015 112.781 29.9565 114.238 29.9193C115.757 29.9584 117.269 29.7219 118.703 29.2214C119.745 28.859 120.65 28.1876 121.298 27.2974ZM142.254 27.2974C142.851 26.383 143.153 25.3086 143.12 24.2182C143.135 23.5056 142.917 22.8075 142.5 22.2283C141.985 21.5414 141.317 20.9828 140.549 20.5967C139.412 20.03 138.21 19.604 136.97 19.3282C135.677 19.017 134.645 18.7482 133.906 18.5266C133.195 18.3335 132.524 18.014 131.927 17.5835C131.634 17.3764 131.394 17.1021 131.23 16.7837C131.065 16.4653 130.979 16.1121 130.98 15.7539C130.987 15.3431 131.102 14.9413 131.315 14.5893C131.528 14.2373 131.831 13.9477 132.192 13.7498C132.976 13.2773 133.881 13.0414 134.796 13.0708C135.632 13.0326 136.463 13.213 137.206 13.5942C137.805 13.9359 138.33 14.3927 138.75 14.9381C139.076 15.3678 139.446 15.7629 139.853 16.117C140.092 16.3053 140.391 16.4023 140.696 16.3905C141.102 16.4237 141.505 16.3005 141.823 16.0463C141.94 15.9341 142.031 15.7981 142.091 15.6476C142.151 15.497 142.177 15.3355 142.168 15.1739C142.149 14.7443 142.004 14.3297 141.752 13.9809C141.393 13.4709 140.934 13.0393 140.402 12.7124C139.681 12.2677 138.893 11.9413 138.068 11.7457C137.002 11.4854 135.908 11.3603 134.811 11.3732C133.486 11.3363 132.169 11.5806 130.947 12.09C130.019 12.4776 129.219 13.1163 128.636 13.9337C128.132 14.6403 127.86 15.4857 127.86 16.3528C127.829 17.1994 128.11 18.0281 128.651 18.6822C129.278 19.3952 130.062 19.9537 130.942 20.3138C132.246 20.8448 133.59 21.2706 134.962 21.587C136.161 21.8237 137.318 22.2319 138.4 22.7988C138.826 23.0565 139.175 23.4245 139.408 23.8637C139.642 24.303 139.751 24.797 139.725 25.2933C139.71 25.7168 139.587 26.1295 139.369 26.4931C139.15 26.8567 138.843 27.1593 138.475 27.3729C137.632 27.92 136.64 28.1934 135.634 28.1557C134.554 28.2468 133.471 28.0134 132.525 27.4855C131.579 26.9577 130.813 26.1596 130.327 25.1943C130.156 24.8644 129.934 24.5635 129.669 24.3031C129.463 24.1555 129.211 24.0868 128.958 24.1098C128.784 24.1028 128.609 24.1318 128.446 24.1951C128.283 24.2584 128.135 24.3546 128.011 24.4776C127.892 24.5907 127.797 24.7277 127.733 24.8795C127.67 25.0314 127.639 25.1949 127.642 25.3594C127.668 26.0956 127.936 26.803 128.404 27.3729C129.068 28.1782 129.931 28.796 130.909 29.1648C132.265 29.6968 133.714 29.9518 135.17 29.9145C136.689 29.9537 138.202 29.7172 139.635 29.2166C140.685 28.8598 141.599 28.1897 142.254 27.2974Z" fill="#494949"/>
</g>
<defs>
<clipPath id="clip0_4784_235">
<rect width="144" height="30" fill="white" transform="translate(0.0195312)"/>
</clipPath>
</defs>
</svg>
