<svg width="20" height="20" viewBox="0 0 20 20" fill="none" xmlns="http://www.w3.org/2000/svg">
<path d="M18.9813 10.8095L19.9771 10.9016C20.0134 10.5091 19.8157 10.1319 19.4723 9.93836C19.1289 9.74483 18.7039 9.77107 18.3869 10.0054L18.9813 10.8095ZM9.19135 1.01953L9.99551 1.61394C10.2298 1.29697 10.256 0.871938 10.0625 0.528555C9.869 0.185173 9.49182 -0.0124968 9.09933 0.0237742L9.19135 1.01953ZM17.9856 10.7175C17.8458 12.2306 17.2779 13.6725 16.3485 14.8747L17.9307 16.098C19.0925 14.5953 19.8023 12.7929 19.9771 10.9016L17.9856 10.7175ZM16.3485 14.8747C15.419 16.0768 14.1665 16.9893 12.7373 17.5055L13.4168 19.3866C15.2032 18.7413 16.7689 17.6006 17.9307 16.098L16.3485 14.8747ZM12.7373 17.5055C11.3082 18.0218 9.76158 18.1203 8.27848 17.7896L7.84322 19.7417C9.69709 20.155 11.6303 20.0319 13.4168 19.3866L12.7373 17.5055ZM8.27848 17.7896C6.79538 17.4589 5.43714 16.7127 4.36268 15.6382L2.94847 17.0524C4.29154 18.3955 5.98935 19.3283 7.84322 19.7417L8.27848 17.7896ZM4.36268 15.6382C3.28822 14.5637 2.54198 13.2055 2.21129 11.7224L0.259223 12.1577C0.672592 14.0115 1.60539 15.7093 2.94847 17.0524L4.36268 15.6382ZM2.21129 11.7224C1.88059 10.2393 1.97911 8.6927 2.49533 7.26355L0.614281 6.5841C-0.0309896 8.37053 -0.154146 10.3038 0.259223 12.1577L2.21129 11.7224ZM2.49533 7.26355C3.01155 5.83441 3.92411 4.58184 5.12622 3.6524L3.9029 2.07017C2.40025 3.23196 1.25955 4.79767 0.614281 6.5841L2.49533 7.26355ZM5.12622 3.6524C6.32834 2.72297 7.7703 2.15512 9.28337 2.01529L9.09933 0.0237742C7.20799 0.198558 5.40554 0.908374 3.9029 2.07017L5.12622 3.6524ZM8.38718 0.425124C7.24823 1.966 6.70015 3.86449 6.84265 5.77531L8.83711 5.62658C8.73024 4.19347 9.14129 2.7696 9.99551 1.61394L8.38718 0.425124ZM6.84265 5.77531C6.98514 7.68613 7.80874 9.48233 9.16364 10.8372L10.5779 9.42302C9.56168 8.40685 8.94398 7.05969 8.83711 5.62658L6.84265 5.77531ZM9.16364 10.8372C10.5185 12.1921 12.3148 13.0157 14.2256 13.1582L14.3743 11.1638C12.9412 11.0569 11.594 10.4392 10.5779 9.42302L9.16364 10.8372ZM14.2256 13.1582C16.1364 13.3007 18.0349 12.7527 19.5758 11.6137L18.3869 10.0054C17.2313 10.8596 15.8074 11.2706 14.3743 11.1638L14.2256 13.1582Z" fill="#C9C9C9"/>
</svg>
