<svg width="82" height="26" viewBox="0 0 82 26" fill="none" xmlns="http://www.w3.org/2000/svg">
<path d="M25.212 8.10881C24.2398 7.61528 23.1589 7.37211 22.0681 7.40149C21.0825 7.38873 20.1082 7.6119 19.2272 8.05223C18.279 8.5641 17.446 9.26377 16.7794 10.1082L16.1449 10.9381L15.6336 10.0563C15.1827 9.23693 14.5145 8.5567 13.7018 8.08995C12.825 7.63853 11.8475 7.41624 10.8609 7.44393C9.84539 7.43031 8.84055 7.65144 7.92535 8.08995C6.95246 8.59718 6.09624 9.30057 5.41119 10.1553L4.15648 11.6502V9.2311C4.174 8.9846 4.14106 8.73713 4.05967 8.50368C3.97828 8.27024 3.85014 8.05569 3.683 7.87304C3.52971 7.71646 3.34519 7.59361 3.14131 7.51239C2.93744 7.43117 2.71874 7.39339 2.49931 7.40149C2.2834 7.38726 2.06708 7.42235 1.86686 7.50407C1.66664 7.58579 1.48781 7.71199 1.34403 7.87304C0.994175 8.34241 0.826062 8.92172 0.870551 9.5046V23.5426C0.816015 24.1981 1.00468 24.8507 1.40084 25.377C1.56361 25.5601 1.76543 25.7047 1.99153 25.8001C2.21763 25.8956 2.4623 25.9395 2.70764 25.9287C2.95173 25.9424 3.19576 25.9007 3.42131 25.8067C3.64686 25.7128 3.84805 25.5691 4.0097 25.3864C4.39683 24.8545 4.57992 24.2021 4.52579 23.5474V16.9079C4.52579 14.7247 4.80041 13.0742 5.35911 11.8671C5.79471 10.924 6.81741 9.80168 9.18953 9.80168C9.61813 9.77096 10.0482 9.83635 10.4481 9.99304C10.8479 10.1497 11.2074 10.3937 11.5001 10.7071C11.9796 11.2925 12.2745 12.0062 12.3476 12.7583C12.4492 13.742 12.4935 14.7308 12.4802 15.7196V23.5379C12.422 24.1953 12.6035 24.8515 12.9916 25.3864C13.1514 25.5659 13.3497 25.7074 13.5718 25.8004C13.7938 25.8935 14.034 25.9357 14.2747 25.924C14.5237 25.9382 14.7728 25.897 15.0038 25.8031C15.2348 25.7093 15.4419 25.5653 15.6099 25.3817C16.0025 24.8505 16.1877 24.1951 16.1307 23.5379V17.0164C16.1307 14.8001 16.3296 13.277 16.732 12.348C17.0967 11.5964 17.6576 10.9564 18.356 10.4949C19.0168 10.0472 19.7965 9.8059 20.5956 9.80168C21.0242 9.77395 21.4539 9.83787 21.8556 9.98914C22.2574 10.1404 22.6221 10.3756 22.9251 10.6788C23.4255 11.2301 23.7429 11.9217 23.8342 12.6593C23.9404 13.5322 23.9878 14.4113 23.9762 15.2905V23.5426C23.9217 24.1981 24.1103 24.8507 24.5065 25.377C24.6693 25.5601 24.8711 25.7047 25.0972 25.8001C25.3233 25.8956 25.568 25.9395 25.8133 25.9287C26.0623 25.9429 26.3115 25.9017 26.5425 25.8078C26.7734 25.714 26.9805 25.5701 27.1485 25.3864C27.5412 24.8552 27.7263 24.1998 27.6693 23.5426V13.9607C27.6693 12.1689 27.4799 10.8627 27.1059 10.0752C26.7056 9.23241 26.0408 8.54222 25.212 8.10881ZM36.5044 7.39206C36.2734 7.38057 36.0427 7.42029 35.829 7.50836C35.6153 7.59643 35.4239 7.73065 35.2686 7.90133C34.9054 8.3966 34.737 9.00722 34.7952 9.61777V23.67C34.7477 24.2926 34.9258 24.9115 35.297 25.4147C35.4468 25.5911 35.6353 25.7308 35.8479 25.8232C36.0605 25.9156 36.2916 25.9581 36.5233 25.9475C36.7601 25.9573 36.996 25.915 37.2145 25.8237C37.433 25.7325 37.6286 25.5944 37.7875 25.4194C38.1725 24.9207 38.3566 24.2968 38.3036 23.67V9.46688C38.3469 8.90055 38.165 8.33997 37.797 7.90605C37.6324 7.73138 37.4314 7.59481 37.2081 7.506C36.9847 7.41719 36.7445 7.37829 36.5044 7.39206ZM35.2686 3.2377C35.6261 3.55191 36.0893 3.7203 36.566 3.70926C37.0264 3.71703 37.4722 3.5482 37.8112 3.2377C37.9767 3.07832 38.105 2.88456 38.1868 2.67022C38.2687 2.45587 38.3021 2.22619 38.2847 1.99753C38.3058 1.76925 38.2741 1.53919 38.1921 1.32501C38.11 1.11084 37.9797 0.918254 37.8112 0.762068C37.4684 0.460944 37.0278 0.29346 36.5707 0.290518C36.1041 0.279815 35.6513 0.448713 35.3065 0.762068C35.1362 0.909664 35.0014 1.09352 34.912 1.30003C34.8227 1.50654 34.7811 1.73042 34.7904 1.95509C34.7657 2.19111 34.7959 2.42965 34.8789 2.65211C34.9618 2.87458 35.0952 3.07498 35.2686 3.2377ZM59.2976 23.2974C59.8947 22.383 60.1971 21.3086 60.164 20.2182C60.1784 19.5056 59.9608 18.8075 59.5438 18.2283C59.0251 17.5494 58.3558 16.9991 57.5883 16.6203C56.4516 16.0536 55.2495 15.6276 54.0088 15.3518C52.7162 15.0406 51.6841 14.7718 50.9454 14.5502C50.2341 14.3571 49.5636 14.0376 48.9663 13.6071C48.6728 13.4 48.4336 13.1257 48.2688 12.8073C48.104 12.4889 48.0184 12.1357 48.0194 11.7775C48.026 11.3666 48.1416 10.9649 48.3545 10.6129C48.5673 10.2609 48.8699 9.97129 49.2315 9.77338C50.0153 9.30088 50.9199 9.065 51.8356 9.09435C52.671 9.05616 53.502 9.23662 54.2456 9.61777C54.8363 9.95733 55.3543 10.4091 55.7702 10.9475C56.0962 11.3773 56.4659 11.7723 56.8734 12.1264C57.1126 12.3148 57.4115 12.4118 57.7162 12.3999C58.1222 12.4331 58.5255 12.3099 58.843 12.0557C58.9602 11.9435 59.0517 11.8075 59.1113 11.657C59.1709 11.5065 59.1973 11.3449 59.1887 11.1833C59.1692 10.7538 59.0244 10.3392 58.772 9.9903C58.4137 9.48035 57.9545 9.0487 57.4226 8.72183C56.7016 8.27708 55.9134 7.95069 55.0884 7.75515C54.0226 7.49486 52.9281 7.3697 51.8308 7.38263C50.5065 7.34571 49.1895 7.59004 47.9673 8.09938C47.0393 8.48703 46.2389 9.12573 45.6567 9.94314C45.1627 10.6435 44.8966 11.478 44.8944 12.3339C44.8633 13.1805 45.1445 14.0092 45.6851 14.6634C46.3121 15.3763 47.0965 15.9348 47.9767 16.2949C49.283 16.8297 50.6305 17.2586 52.006 17.5775C53.2045 17.8143 54.3624 18.2224 55.4435 18.7894C55.8702 19.047 56.2188 19.415 56.4523 19.8543C56.6857 20.2935 56.7953 20.7876 56.7692 21.2839C56.7538 21.7074 56.6311 22.1201 56.4125 22.4837C56.194 22.8472 55.8867 23.1499 55.5192 23.3635C54.6763 23.9105 53.6838 24.184 52.6784 24.1462C51.6032 24.2337 50.5263 24.0001 49.5851 23.4751C48.6439 22.9502 47.8812 22.1577 47.3944 21.199C47.2238 20.8691 47.0017 20.5682 46.7362 20.3078C46.5306 20.1602 46.2784 20.0915 46.026 20.1145C45.8512 20.1075 45.6769 20.1365 45.514 20.1998C45.351 20.2631 45.2029 20.3593 45.0791 20.4823C44.9591 20.5955 44.8643 20.7324 44.8007 20.8842C44.7371 21.0361 44.7061 21.1996 44.7098 21.3641C44.7355 22.1003 45.0033 22.8077 45.4721 23.3776C46.1351 24.1829 46.9988 24.8008 47.9767 25.1695C49.3323 25.7015 50.7815 25.9565 52.238 25.9193C53.7565 25.9584 55.2695 25.7219 56.7029 25.2214C57.7448 24.859 58.6503 24.1876 59.2976 23.2974ZM80.2537 23.2974C80.8508 22.383 81.1531 21.3086 81.1201 20.2182C81.1345 19.5056 80.9169 18.8075 80.4999 18.2283C79.9852 17.5414 79.3174 16.9828 78.5491 16.5967C77.4124 16.03 76.2103 15.604 74.9697 15.3282C73.6771 15.017 72.6449 14.7482 71.9063 14.5266C71.1949 14.3335 70.5244 14.014 69.9271 13.5835C69.6336 13.3764 69.3944 13.1021 69.2296 12.7837C69.0648 12.4653 68.9793 12.1121 68.9802 11.7539C68.9868 11.3431 69.1024 10.9413 69.3153 10.5893C69.5282 10.2373 69.8307 9.94771 70.1923 9.74981C70.9761 9.2773 71.8807 9.04142 72.7964 9.07078C73.6319 9.03258 74.4628 9.21304 75.2064 9.5942C75.8052 9.93589 76.3299 10.3927 76.7499 10.9381C77.0759 11.3678 77.4456 11.7629 77.8531 12.117C78.0923 12.3053 78.3912 12.4023 78.6959 12.3905C79.1019 12.4237 79.5053 12.3005 79.8228 12.0463C79.9399 11.9341 80.0314 11.7981 80.091 11.6476C80.1507 11.497 80.1771 11.3355 80.1684 11.1739C80.149 10.7443 80.0042 10.3297 79.7518 9.98087C79.3934 9.47092 78.9342 9.03927 78.4024 8.7124C77.6813 8.26765 76.8932 7.94126 76.0681 7.74572C75.0024 7.48543 73.9079 7.36027 72.8106 7.3732C71.4863 7.33627 70.1692 7.58061 68.947 8.08995C68.0191 8.4776 67.2187 9.1163 66.6365 9.93371C66.1319 10.6403 65.8605 11.4857 65.86 12.3528C65.8288 13.1994 66.1101 14.0281 66.6507 14.6822C67.2776 15.3952 68.0621 15.9537 68.9423 16.3138C70.2458 16.8448 71.5901 17.2706 72.9621 17.587C74.1606 17.8237 75.3184 18.2319 76.3996 18.7988C76.8263 19.0565 77.1749 19.4245 77.4084 19.8637C77.6418 20.303 77.7514 20.797 77.7253 21.2933C77.7099 21.7168 77.5872 22.1295 77.3686 22.4931C77.1501 22.8567 76.8428 23.1593 76.4753 23.3729C75.6324 23.92 74.6399 24.1934 73.6345 24.1557C72.5539 24.2468 71.4708 24.0134 70.5247 23.4855C69.5786 22.9577 68.8131 22.1596 68.3268 21.1943C68.1562 20.8644 67.9341 20.5635 67.6686 20.3031C67.463 20.1555 67.2108 20.0868 66.9584 20.1098C66.7837 20.1028 66.6093 20.1318 66.4464 20.1951C66.2834 20.2584 66.1353 20.3546 66.0115 20.4776C65.8915 20.5907 65.7967 20.7277 65.7331 20.8795C65.6695 21.0314 65.6385 21.1949 65.6422 21.3594C65.6679 22.0956 65.9357 22.803 66.4045 23.3729C67.0675 24.1782 67.9312 24.796 68.9091 25.1648C70.2647 25.6968 71.7139 25.9518 73.1704 25.9145C74.6889 25.9537 76.2019 25.7172 77.6353 25.2166C78.6853 24.8598 79.5994 24.1897 80.2537 23.2974Z" fill="#494949"/>
</svg>
