<svg width="22" height="22" viewBox="0 0 22 22" fill="none" xmlns="http://www.w3.org/2000/svg">
<path d="M3.37222 4.3067V2.11111V1.96111H3.22222H1H0.85V2.11111V8.77777V8.92777H1H7.66667H7.81667V8.77777V6.55555V6.40555H7.66667H4.91313C5.62524 5.49932 6.48305 4.77904 7.48725 4.24346C8.57631 3.66263 9.74646 3.37222 11 3.37222C13.1291 3.3737 14.9289 4.11323 16.4084 5.59273C17.8879 7.07225 18.6271 8.87168 18.6278 11C18.6285 13.1283 17.8894 14.9281 16.4084 16.4083C14.9274 17.8886 13.1276 18.6278 11 18.6278C9.09195 18.6278 7.42803 18.0109 6.00153 16.7755C4.57541 15.5404 3.73643 13.9812 3.48199 12.0911L3.46449 11.9611H3.33333H1.05556H0.888241L0.906446 12.1274C1.18822 14.7017 2.28882 16.8516 4.2054 18.5705C6.12221 20.2897 8.38946 21.15 10.9998 21.15C10.9999 21.15 10.9999 21.15 11 21.15V21C12.3904 21.0015 13.6915 20.7378 14.9033 20.2089C16.1152 19.68 17.1707 18.967 18.07 18.07C18.9693 17.173 19.6822 16.1174 20.2089 14.9033C20.7356 13.6893 20.9993 12.3881 21 11C21.0007 9.61185 20.737 8.31074 20.2089 7.09666C19.6807 5.88259 18.9678 4.82704 18.07 3.93C17.1722 3.03296 16.1167 2.32037 14.9033 1.79222C13.69 1.26407 12.3889 1 11 1C9.48222 1 8.04259 1.32407 6.68111 1.97222C5.39088 2.58645 4.28792 3.44182 3.37222 4.53834V4.3067Z" fill="#98BF38" stroke="#98BF38" stroke-width="0.3"/>
</svg>
