<svg width="25" height="24" viewBox="0 0 25 24" fill="none" xmlns="http://www.w3.org/2000/svg">
<path d="M13.0195 1C13.0195 0.447715 12.5718 0 12.0195 0C11.4672 0 11.0195 0.447715 11.0195 1H13.0195ZM11.0195 3C11.0195 3.55228 11.4672 4 12.0195 4C12.5718 4 13.0195 3.55228 13.0195 3H11.0195ZM13.0195 21C13.0195 20.4477 12.5718 20 12.0195 20C11.4672 20 11.0195 20.4477 11.0195 21H13.0195ZM11.0195 23C11.0195 23.5523 11.4672 24 12.0195 24C12.5718 24 13.0195 23.5523 13.0195 23H11.0195ZM4.94664 3.51289C4.55611 3.12237 3.92295 3.12237 3.53242 3.51289C3.1419 3.90342 3.1419 4.53658 3.53242 4.92711L4.94664 3.51289ZM4.95242 6.34711C5.34295 6.73763 5.97611 6.73763 6.36664 6.34711C6.75716 5.95658 6.75716 5.32342 6.36664 4.93289L4.95242 6.34711ZM19.0866 17.6529C18.6961 17.2624 18.0629 17.2624 17.6724 17.6529C17.2819 18.0434 17.2819 18.6766 17.6724 19.0671L19.0866 17.6529ZM19.0924 20.4871C19.4829 20.8776 20.1161 20.8776 20.5066 20.4871C20.8972 20.0966 20.8972 19.4634 20.5066 19.0729L19.0924 20.4871ZM1.01953 11C0.467247 11 0.0195312 11.4477 0.0195312 12C0.0195312 12.5523 0.467247 13 1.01953 13V11ZM3.01953 13C3.57182 13 4.01953 12.5523 4.01953 12C4.01953 11.4477 3.57182 11 3.01953 11V13ZM21.0195 11C20.4672 11 20.0195 11.4477 20.0195 12C20.0195 12.5523 20.4672 13 21.0195 13V11ZM23.0195 13C23.5718 13 24.0195 12.5523 24.0195 12C24.0195 11.4477 23.5718 11 23.0195 11V13ZM3.53242 19.0729C3.1419 19.4634 3.1419 20.0966 3.53242 20.4871C3.92295 20.8776 4.55611 20.8776 4.94664 20.4871L3.53242 19.0729ZM6.36664 19.0671C6.75716 18.6766 6.75716 18.0434 6.36664 17.6529C5.97611 17.2624 5.34295 17.2624 4.95242 17.6529L6.36664 19.0671ZM17.6724 4.93289C17.2819 5.32342 17.2819 5.95658 17.6724 6.34711C18.0629 6.73763 18.6961 6.73763 19.0866 6.34711L17.6724 4.93289ZM20.5066 4.92711C20.8972 4.53658 20.8972 3.90342 20.5066 3.51289C20.1161 3.12237 19.4829 3.12237 19.0924 3.51289L20.5066 4.92711ZM16.0195 12C16.0195 14.2091 14.2287 16 12.0195 16V18C15.3332 18 18.0195 15.3137 18.0195 12H16.0195ZM12.0195 16C9.81039 16 8.01953 14.2091 8.01953 12H6.01953C6.01953 15.3137 8.70582 18 12.0195 18V16ZM8.01953 12C8.01953 9.79086 9.81039 8 12.0195 8V6C8.70582 6 6.01953 8.68629 6.01953 12H8.01953ZM12.0195 8C14.2287 8 16.0195 9.79086 16.0195 12H18.0195C18.0195 8.68629 15.3332 6 12.0195 6V8ZM11.0195 1V3H13.0195V1H11.0195ZM11.0195 21V23H13.0195V21H11.0195ZM3.53242 4.92711L4.95242 6.34711L6.36664 4.93289L4.94664 3.51289L3.53242 4.92711ZM17.6724 19.0671L19.0924 20.4871L20.5066 19.0729L19.0866 17.6529L17.6724 19.0671ZM1.01953 13H3.01953V11H1.01953V13ZM21.0195 13H23.0195V11H21.0195V13ZM4.94664 20.4871L6.36664 19.0671L4.95242 17.6529L3.53242 19.0729L4.94664 20.4871ZM19.0866 6.34711L20.5066 4.92711L19.0924 3.51289L17.6724 4.93289L19.0866 6.34711Z" fill="#98BF38"/>
</svg>
