<svg width="114" height="79" viewBox="0 0 114 79" fill="none" xmlns="http://www.w3.org/2000/svg">
<g clip-path="url(#clip0_4784_447)">
<path d="M57 0.25C42.3225 0.25 30.78 11.4006 29.1662 25.6328C26.062 26.133 23.1508 27.4632 20.7407 29.4826C18.3306 31.5019 16.5114 34.1354 15.4755 37.1041C6.71175 39.6299 0 47.446 0 57.25C0 69.0918 9.53325 78.625 21.375 78.625H92.625C104.467 78.625 114 69.0918 114 57.25C114 50.98 110.954 45.3655 106.54 41.4396C105.714 28.921 95.7279 18.9318 83.163 18.2834C78.8737 7.84881 69.0341 0.25 57 0.25ZM57 7.375C66.8396 7.375 74.7056 13.6806 77.4844 22.6225L78.2681 25.1875H81.9375C91.7522 25.1875 99.75 33.1853 99.75 43V44.7812L101.196 45.8963C102.942 47.2342 104.36 48.9516 105.344 50.9187C106.328 52.8857 106.852 55.0508 106.875 57.25C106.875 65.3583 100.733 71.5 92.625 71.5H21.375C13.2668 71.5 7.125 65.3583 7.125 57.25C7.125 50.0537 12.2906 44.4678 18.81 43.3349L21.1506 42.8896L21.5959 40.5454C22.6646 35.7467 26.9182 32.3125 32.0625 32.3125H35.625V28.75C35.625 16.7444 44.9944 7.375 57 7.375ZM57 27.3036L54.435 29.7511L40.185 44.0011L45.315 49.1311L53.4375 40.9943V64.375H60.5625V40.9943L68.685 49.1239L73.815 43.9939L59.565 29.7439L57 27.3036Z" fill="#98BF38"/>
</g>
<defs>
<clipPath id="clip0_4784_447">
<rect width="114" height="79" fill="white"/>
</clipPath>
</defs>
</svg>
