<svg width="20" height="20" viewBox="0 0 20 20" fill="none" xmlns="http://www.w3.org/2000/svg">
<g clip-path="url(#clip0_4784_126)">
<path d="M18.7356 10.0003C18.7362 9.14542 18.611 8.29509 18.3638 7.47669L18.2565 7.12124H17.8852H14.0091H13.4171L13.5161 7.70488C13.7739 9.22432 13.7739 10.7763 13.5161 12.2958L13.4171 12.8794H14.0091H17.8852H18.2565L18.3638 12.524C18.611 11.7056 18.7362 10.8552 18.7356 10.0003ZM18.7356 10.0003C18.7356 10.0005 18.7356 10.0006 18.7356 10.0007L18.2356 10.0003L18.7356 9.99994C18.7356 10.0001 18.7356 10.0002 18.7356 10.0003ZM1.26504 10.0003C1.26442 10.8552 1.3897 11.7056 1.63684 12.524L1.74418 12.8794H2.11549H5.99157H6.58355L6.48453 12.2958C6.22672 10.7763 6.22672 9.22432 6.48453 7.70488L6.58355 7.12124H5.99157H2.11549H1.74418L1.63684 7.47669C1.3897 8.29509 1.26442 9.14542 1.26504 10.0003ZM1.26504 10.0003C1.26504 10.0002 1.26504 10.0001 1.26504 9.99994L1.76504 10.0003L1.26504 10.0007C1.26504 10.0006 1.26504 10.0005 1.26504 10.0003ZM5.99157 12.3794H5.48467C5.48924 12.4073 5.49389 12.4352 5.49862 12.463L5.99157 12.3794ZM5.99157 12.3794V11.8794H5.91586C5.93811 12.0464 5.96335 12.2131 5.99157 12.3794ZM5.99157 7.62124V8.12124H5.91586C5.93811 7.95425 5.96335 7.78756 5.99157 7.62124ZM5.99157 7.62124L5.49862 7.5376C5.49389 7.56547 5.48924 7.59335 5.48467 7.62124H5.99157ZM10.0003 1.24934L10.3574 1.61358C10.9122 2.17959 11.4017 2.80625 11.8164 3.48172C12.3729 4.38709 12.8053 5.36312 13.102 6.38361L13.288 7.0232H12.6219H7.37876H6.71269L6.89864 6.38361C7.19533 5.36312 7.62775 4.38709 8.18429 3.48172L10.0003 1.24934ZM10.0003 1.24934L9.64327 1.61358M10.0003 1.24934L9.64327 1.61358M9.64327 1.61358C9.08848 2.17953 8.59912 2.8061 8.18444 3.48148L9.64327 1.61358ZM17.4642 7.0232H18.25L17.9172 6.31139C17.3212 5.03694 16.427 3.92475 15.3104 3.06888C14.1937 2.21301 12.8873 1.63863 11.5018 1.39433L10.2312 1.17029C12.4893 1.23199 14.6418 2.15597 16.2432 3.75743C17.8993 5.41351 18.8309 7.65885 18.8337 10.0009C18.8335 11.7478 18.3155 13.4554 17.345 14.9079C16.3744 16.3605 14.9948 17.4927 13.3807 18.1613C12.2475 18.6306 11.0345 18.8567 9.8193 18.8318L8.97263 17.7972C7.90772 16.496 7.13758 14.9794 6.71528 13.3519L6.61813 12.9774H6.23131H2.53641H1.75061L2.08349 13.6893C2.67949 14.9637 3.57363 16.0759 4.69029 16.9318C5.80696 17.7876 7.11331 18.362 8.49887 18.6063L9.77136 18.8307C9.27164 18.8177 8.77173 18.7623 8.27703 18.6639C6.56353 18.3231 4.98958 17.4818 3.75422 16.2464C2.51886 15.0111 1.67756 13.4371 1.33673 11.7236C0.99589 10.0101 1.17082 8.23404 1.83939 6.61995C2.50797 5.00587 3.64016 3.6263 5.09279 2.65568C6.48189 1.72751 8.10436 1.21318 9.77133 1.16996L8.49887 1.39433C7.11331 1.63863 5.80696 2.21301 4.69029 3.06888C3.57363 3.92475 2.67949 5.03694 2.08349 6.31139L1.75061 7.0232H2.53641H6.23131H6.61813L6.71528 6.64878C7.13758 5.02124 7.90772 3.50462 8.97263 2.2034L9.8193 1.16885C9.8795 1.16761 9.93975 1.16699 10 1.16699C10.0606 1.16707 10.1211 1.16776 10.1815 1.16907L11.028 2.2034C12.0929 3.50462 12.8631 5.02124 13.2854 6.64878L13.3825 7.0232H13.7693H17.4642ZM9.64327 18.3871L10.0003 18.7513L11.8164 16.5189C12.3729 15.6136 12.8053 14.6375 13.102 13.617L13.288 12.9774H12.6219H7.37876H6.71269L6.89864 13.617C7.19533 14.6375 7.62775 15.6136 8.18429 16.5189C8.59901 17.1944 9.08841 17.8211 9.64327 18.3871ZM6.6222 12.4728L6.69952 12.8794H7.1134H12.8873H13.3011L13.3785 12.4728C13.6891 10.8391 13.6891 9.16152 13.3785 7.52784L13.3011 7.12124H12.8873H7.1134H6.69952L6.6222 7.52784C6.31155 9.16152 6.31155 10.8391 6.6222 12.4728ZM11.0255 17.797L10.3562 18.6139H11.4122H11.415H11.4587L11.5018 18.6063C12.8873 18.362 14.1937 17.7876 15.3104 16.9318C16.427 16.0759 17.3212 14.9637 17.9172 13.6893L18.25 12.9774H17.4642H13.7693H13.3827L13.2854 13.3517C12.8623 14.9794 12.0913 16.4961 11.0255 17.797Z" stroke="#FBFBFB"/>
</g>
<defs>
<clipPath id="clip0_4784_126">
<rect width="20" height="20" fill="white"/>
</clipPath>
</defs>
</svg>
